<svg width="89" height="89" viewBox="0 0 89 89" fill="none" xmlns="http://www.w3.org/2000/svg">
<path fill-rule="evenodd" clip-rule="evenodd" d="M22.25 40.0498C24.6105 40.0498 26.8742 39.1121 28.5433 37.4431C30.2124 35.774 31.15 33.5102 31.15 31.1498C31.15 28.7894 30.2124 26.5256 28.5433 24.8566C26.8742 23.1875 24.6105 22.2498 22.25 22.2498C19.8896 22.2498 17.6258 23.1875 15.9568 24.8566C14.2877 26.5256 13.35 28.7894 13.35 31.1498C13.35 33.5102 14.2877 35.774 15.9568 37.4431C17.6258 39.1121 19.8896 40.0498 22.25 40.0498ZM22.25 44.4998C24.0032 44.4998 25.7392 44.1545 27.3588 43.4836C28.9785 42.8127 30.4502 41.8293 31.6899 40.5897C32.9296 39.35 33.9129 37.8783 34.5838 36.2586C35.2547 34.6389 35.6 32.903 35.6 31.1498C35.6 29.3967 35.2547 27.6607 34.5838 26.041C33.9129 24.4213 32.9296 22.9496 31.6899 21.7099C30.4502 20.4703 28.9785 19.4869 27.3588 18.816C25.7392 18.1451 24.0032 17.7998 22.25 17.7998C18.7094 17.7998 15.3138 19.2063 12.8101 21.7099C10.3065 24.2135 8.90002 27.6092 8.90002 31.1498C8.90002 34.6904 10.3065 38.0861 12.8101 40.5897C15.3138 43.0933 18.7094 44.4998 22.25 44.4998Z" fill="#FF9C00"/>
<path fill-rule="evenodd" clip-rule="evenodd" d="M17.1503 39.5868C17.3576 39.7935 17.522 40.039 17.6341 40.3094C17.7463 40.5797 17.804 40.8695 17.804 41.1621C17.804 41.4548 17.7463 41.7446 17.6341 42.0149C17.522 42.2852 17.3576 42.5307 17.1503 42.7374L15.6462 44.2371C12.7517 47.1324 11.1254 51.0588 11.125 55.1529V63.4121C11.125 64.0022 10.8906 64.5682 10.4734 64.9854C10.0561 65.4027 9.49016 65.6371 8.90005 65.6371C8.30994 65.6371 7.744 65.4027 7.32674 64.9854C6.90947 64.5682 6.67505 64.0022 6.67505 63.4121V55.1529C6.67568 49.8787 8.77094 44.8206 12.5001 41.0909L13.9997 39.5868C14.2064 39.3796 14.452 39.2152 14.7223 39.1031C14.9926 38.9909 15.2824 38.9331 15.575 38.9331C15.8677 38.9331 16.1575 38.9909 16.4278 39.1031C16.6981 39.2152 16.9437 39.3796 17.1503 39.5868ZM69.6248 38.2518C69.4175 38.4585 69.2532 38.704 69.141 38.9744C69.0288 39.2447 68.9711 39.5345 68.9711 39.8271C68.9711 40.1198 69.0288 40.4096 69.141 40.6799C69.2532 40.9502 69.4175 41.1957 69.6248 41.4024L71.1289 42.9021C74.0234 45.7974 75.6497 49.7238 75.6501 53.8179V63.4121C75.6501 64.0022 75.8845 64.5682 76.3017 64.9854C76.719 65.4027 77.285 65.6371 77.8751 65.6371C78.4652 65.6371 79.0311 65.4027 79.4484 64.9854C79.8656 64.5682 80.1001 64.0022 80.1001 63.4121V53.8179C80.0994 48.5437 78.0042 43.4856 74.275 39.7559L72.7754 38.2518C72.5687 38.0446 72.3231 37.8802 72.0528 37.7681C71.7825 37.6559 71.4927 37.5981 71.2001 37.5981C70.9074 37.5981 70.6176 37.6559 70.3473 37.7681C70.077 37.8802 69.8314 38.0446 69.6248 38.2518Z" fill="#FF9C00"/>
<path fill-rule="evenodd" clip-rule="evenodd" d="M62.3001 40.0498C59.9396 40.0498 57.6759 39.1121 56.0068 37.4431C54.3378 35.774 53.4001 33.5102 53.4001 31.1498C53.4001 28.7894 54.3378 26.5256 56.0068 24.8566C57.6759 23.1875 59.9396 22.2498 62.3001 22.2498C64.6605 22.2498 66.9243 23.1875 68.5933 24.8566C70.2624 26.5256 71.2001 28.7894 71.2001 31.1498C71.2001 33.5102 70.2624 35.774 68.5933 37.4431C66.9243 39.1121 64.6605 40.0498 62.3001 40.0498ZM62.3001 44.4998C60.5469 44.4998 58.8109 44.1545 57.1913 43.4836C55.5716 42.8127 54.0999 41.8293 52.8602 40.5897C51.6205 39.35 50.6372 37.8783 49.9663 36.2586C49.2954 34.6389 48.9501 32.903 48.9501 31.1498C48.9501 29.3967 49.2954 27.6607 49.9663 26.041C50.6372 24.4213 51.6205 22.9496 52.8602 21.7099C54.0999 20.4703 55.5716 19.4869 57.1913 18.816C58.8109 18.1451 60.5469 17.7998 62.3001 17.7998C65.8407 17.7998 69.2363 19.2063 71.74 21.7099C74.2436 24.2135 75.6501 27.6092 75.6501 31.1498C75.6501 34.6904 74.2436 38.0861 71.74 40.5897C69.2363 43.0933 65.8407 44.4998 62.3001 44.4998ZM42.2751 58.9623C39.3245 58.9623 36.4949 60.1344 34.4085 62.2207C32.3222 64.3071 31.1501 67.1368 31.1501 70.0873V75.8723C31.1501 76.4624 30.9157 77.0284 30.4984 77.4456C30.0811 77.8629 29.5152 78.0973 28.9251 78.0973C28.335 78.0973 27.769 77.8629 27.3518 77.4456C26.9345 77.0284 26.7001 76.4624 26.7001 75.8723V70.0873C26.7001 65.9566 28.341 61.995 31.2619 59.0741C34.1828 56.1532 38.1443 54.5123 42.2751 54.5123C46.4058 54.5123 50.3674 56.1532 53.2883 59.0741C56.2091 61.995 57.8501 65.9566 57.8501 70.0873V75.8723C57.8501 76.4624 57.6157 77.0284 57.1984 77.4456C56.7811 77.8629 56.2152 78.0973 55.6251 78.0973C55.035 78.0973 54.469 77.8629 54.0518 77.4456C53.6345 77.0284 53.4001 76.4624 53.4001 75.8723V70.0873C53.4001 68.6264 53.1123 67.1797 52.5532 65.83C51.9942 64.4802 51.1747 63.2538 50.1416 62.2207C49.1086 61.1877 47.8822 60.3682 46.5324 59.8091C45.1827 59.2501 43.736 58.9623 42.2751 58.9623Z" fill="#FF9C00"/>
<path fill-rule="evenodd" clip-rule="evenodd" d="M42.275 52.2871C44.6355 52.2871 46.8992 51.3494 48.5683 49.6804C50.2374 48.0113 51.1751 45.7475 51.1751 43.3871C51.1751 41.0267 50.2374 38.7629 48.5683 37.0939C46.8992 35.4248 44.6355 34.4871 42.275 34.4871C39.9146 34.4871 37.6509 35.4248 35.9818 37.0939C34.3127 38.7629 33.375 41.0267 33.375 43.3871C33.375 45.7475 34.3127 48.0113 35.9818 49.6804C37.6509 51.3494 39.9146 52.2871 42.275 52.2871ZM42.275 56.7371C45.8157 56.7371 49.2113 55.3306 51.7149 52.827C54.2185 50.3234 55.625 46.9278 55.625 43.3871C55.625 39.8465 54.2185 36.4508 51.7149 33.9472C49.2113 31.4436 45.8157 30.0371 42.275 30.0371C38.7344 30.0371 35.3388 31.4436 32.8352 33.9472C30.3316 36.4508 28.925 39.8465 28.925 43.3871C28.925 46.9278 30.3316 50.3234 32.8352 52.827C35.3388 55.3306 38.7344 56.7371 42.275 56.7371Z" fill="#FF9C00"/>
</svg>
